# File created by Blade
# Date/Time:  Thu Jan 22 18:06:27 2015
# Frame Rate: 120.000 fps
#------------------------------------------------------
:FULLY-SPECIFIED
:DEGREES
3454
root -0.026493 32.748252 -2.169057 5.255694 -7.055200 2.813199
RightUpLeg -17.115749 -9.901295 -2.050197
RightLeg 79.692459 -0.000000 -0.000000
RightFoot 0.522668 -8.588030 8.127532
RightToeBase -4.087651 -0.000000 0.000000
LeftUpLeg -0.007344 -0.089814 -11.350205
LeftLeg 0.802754 -0.000000 -0.000000
LeftFoot -12.504328 9.933279 -5.068527
LeftToeBase 10.358533 -0.000000 -0.000000
Spine -8.576828 -2.453026 -5.115755
RightShoulder -17.749151 -16.479156 -19.803544
RightArm 23.771766 22.378249 54.641836
RightForeArm -4.780147 -0.000000 21.956876
RightHand 11.014947 -0.000000 1.229785
RightHandThumb1 -24.326973 -0.000000 -32.862282
LeftShoulder -22.102053 5.180129 25.246539
LeftArm 7.447926 -42.017923 -51.203211
LeftForeArm 11.419173 0.000000 66.434763
LeftHand -2.756298 -0.000000 33.501359
LeftHandThumb1 -26.253704 0.000000 33.147579
Head 10.778105 -4.870534 0.285054
3455
root -0.028670 32.747107 -2.165740 5.265013 -7.096408 2.820857
RightUpLeg -17.132920 -9.872998 -2.050064
RightLeg 79.711767 -0.000000 -0.000000
RightFoot 0.518749 -8.585593 8.146533
RightToeBase -4.118624 -0.000000 0.000000
LeftUpLeg -0.012152 -0.075286 -11.359111
LeftLeg 0.804324 -0.000000 -0.000000
LeftFoot -12.516925 9.952777 -5.069347
LeftToeBase 10.320240 -0.000000 -0.000000
Spine -8.585207 -2.470887 -5.110976
RightShoulder -17.719280 -16.486343 -19.813817
RightArm 23.771451 22.368430 54.638478
RightForeArm -4.742994 0.000000 21.981102
RightHand 11.015463 -0.000000 1.203667
RightHandThumb1 -24.326973 -0.000000 -32.862282
LeftShoulder -22.083900 5.114445 25.293038
LeftArm 7.227890 -42.009454 -51.048261
LeftForeArm 11.410851 -0.000000 66.394066
LeftHand -2.772536 -0.000000 33.395797
LeftHandThumb1 -26.253704 0.000000 33.147579
Head 10.759276 -4.874277 0.292681
3456
root -0.030238 32.745668 -2.161326 5.267900 -7.137231 2.833124
RightUpLeg -17.142478 -9.852725 -2.060340
RightLeg 79.730403 -0.000000 -0.000000
RightFoot 0.528421 -8.570710 8.103733
RightToeBase -4.119172 -0.000000 0.000000
LeftUpLeg -0.006224 -0.060442 -11.373067
LeftLeg 0.793798 -0.000000 -0.000000
LeftFoot -12.520521 9.970549 -5.043937
LeftToeBase 10.325863 -0.000000 -0.000000
Spine -8.577700 -2.467334 -5.116905
RightShoulder -17.740400 -16.482265 -19.803925
RightArm 23.798318 22.341360 54.630240
RightForeArm -4.729749 -0.000000 21.975323
RightHand 11.005892 -0.000000 1.173603
RightHandThumb1 -24.326973 -0.000000 -32.862282
LeftShoulder -22.099785 5.124269 25.289432
LeftArm 7.183818 -42.035368 -50.981412
LeftForeArm 11.386161 -0.000000 66.323761
LeftHand -2.786862 0.000000 33.393734
LeftHandThumb1 -26.253704 0.000000 33.147579
Head 10.707200 -4.879628 0.324445
3457
root -0.032167 32.744183 -2.157521 5.270122 -7.178331 2.840618
RightUpLeg -17.148318 -9.833747 -2.067355
RightLeg 79.736587 -0.000000 -0.000000
RightFoot 0.561094 -8.627420 7.998162
RightToeBase -4.141858 -0.000000 0.000000
LeftUpLeg -0.001516 -0.061508 -11.381358
LeftLeg 0.787390 -0.000000 -0.000000
LeftFoot -12.530961 9.999558 -5.041692
LeftToeBase 10.322527 -0.000000 -0.000000
Spine -8.576295 -2.476294 -5.117884
RightShoulder -17.718188 -16.469673 -19.810349
RightArm 23.788948 22.333286 54.626570
RightForeArm -4.745895 -0.000000 21.985764
RightHand 10.971225 -0.000000 1.183012
RightHandThumb1 -24.326973 -0.000000 -32.862282
LeftShoulder -22.114845 5.138794 25.295707
LeftArm 7.137886 -42.077413 -50.927952
LeftForeArm 11.373287 -0.000000 66.247679
LeftHand -2.790513 -0.000000 33.402842
LeftHandThumb1 -26.253704 0.000000 33.147579
Head 10.686590 -4.885056 0.357436
3458
root -0.033993 32.742959 -2.152819 5.269448 -7.228108 2.845858
RightUpLeg -17.155291 -9.803043 -2.066996
RightLeg 79.756760 -0.000000 -0.000000
RightFoot 0.508923 -8.562388 8.146798
RightToeBase -4.066877 -0.000000 0.000000
LeftUpLeg 0.007180 -0.059772 -11.390471
LeftLeg 0.781837 -0.000000 -0.000000
LeftFoot -12.541670 10.042748 -5.033098
LeftToeBase 10.295610 -0.000000 -0.000000
Spine -8.571998 -2.462311 -5.117796
RightShoulder -17.727618 -16.485705 -19.796373
RightArm 23.817111 22.315226 54.615966
RightForeArm -4.740804 -0.000000 21.981061
RightHand 10.940790 -0.000000 1.183007
RightHandThumb1 -24.326973 -0.000000 -32.862282
LeftShoulder -22.127528 5.171928 25.294883
LeftArm 7.113374 -42.125322 -50.892389
LeftForeArm 11.346474 -0.000000 66.172957
LeftHand -2.749831 0.000000 33.414260
LeftHandThumb1 -26.253704 0.000000 33.147579
Head 10.674909 -4.908560 0.377402
3459
root -0.036130 32.741231 -2.148721 5.269738 -7.270834 2.855640
RightUpLeg -17.161083 -9.790917 -2.073639
RightLeg 79.765575 -0.000000 -0.000000
RightFoot 0.518152 -8.532180 8.109733
RightToeBase -4.132632 -0.000000 0.000000
LeftUpLeg 0.013744 -0.095337 -11.403623
LeftLeg 0.777110 -0.000000 -0.000000
LeftFoot -12.562888 10.112596 -5.034312
LeftToeBase 10.320975 -0.000000 -0.000000
Spine -8.564257 -2.469448 -5.119514
RightShoulder -17.734656 -16.515853 -19.779520
RightArm 23.874350 22.312685 54.624251
RightForeArm -4.744655 -0.000000 21.978297
RightHand 10.899258 -0.000000 1.225043
RightHandThumb1 -24.326973 -0.000000 -32.862282
LeftShoulder -22.190297 5.281552 25.244858
LeftArm 7.248482 -42.209823 -50.936771
LeftForeArm 11.352341 -0.000000 66.073486
LeftHand -2.809568 -0.000000 33.392230
LeftHandThumb1 -26.253704 0.000000 33.147579
Head 10.642659 -4.896199 0.395637
3460
root -0.038860 32.739781 -2.144357 5.270812 -7.316682 2.858053
RightUpLeg -17.166626 -9.764704 -2.069376
RightLeg 79.771191 -0.000000 -0.000000
RightFoot 0.512326 -8.534514 8.131014
RightToeBase -4.131867 -0.000000 0.000000
LeftUpLeg 0.018537 -0.091602 -11.407139
LeftLeg 0.774523 -0.000000 -0.000000
LeftFoot -12.583553 10.138684 -5.049024
LeftToeBase 10.317299 -0.000000 -0.000000
Spine -8.560264 -2.459635 -5.122708
RightShoulder -17.732536 -16.503068 -19.771498
RightArm 23.868043 22.293029 54.609119
RightForeArm -4.754608 0.000000 21.965111
RightHand 10.895355 0.000000 1.255582
RightHandThumb1 -24.326973 -0.000000 -32.862282
LeftShoulder -22.193423 5.281205 25.266925
LeftArm 7.174195 -42.251925 -50.878628
LeftForeArm 11.340273 -0.000000 66.006906
LeftHand -2.812952 0.000000 33.395770
LeftHandThumb1 -26.253704 0.000000 33.147579
Head 10.605604 -4.874148 0.449962
3461
root -0.039179 32.739152 -2.140204 5.267239 -7.355298 2.871750
RightUpLeg -17.167368 -9.756192 -2.084632
RightLeg 79.771694 -0.000000 -0.000000
RightFoot 0.520837 -8.543273 8.081619
RightToeBase -4.134151 -0.000000 0.000000
LeftUpLeg 0.018254 -0.127293 -11.426179
LeftLeg 0.790365 -0.000000 -0.000000
LeftFoot -12.589088 10.211297 -5.048514
LeftToeBase 10.262732 -0.000000 -0.000000
Spine -8.550252 -2.455216 -5.129356
RightShoulder -17.731383 -16.511091 -19.750342
RightArm 23.871532 22.290106 54.588129
RightForeArm -4.766300 0.000000 21.962287
RightHand 10.935817 -0.000000 1.306209
RightHandThumb1 -24.326973 -0.000000 -32.862282
LeftShoulder -22.193578 5.275107 25.281963
LeftArm 7.077304 -42.285959 -50.810598
LeftForeArm 11.300686 -0.000000 65.961886
LeftHand -2.789147 -0.000000 33.419871
LeftHandThumb1 -26.253704 0.000000 33.147579
Head 10.597729 -4.857488 0.485417
3462
root -0.043029 32.738354 -2.135522 5.265068 -7.393015 2.861883
RightUpLeg -17.160827 -9.736888 -2.064552
RightLeg 79.755379 -0.000000 -0.000000
RightFoot 0.499721 -8.532004 8.131893
RightToeBase -4.036559 -0.000000 0.000000
LeftUpLeg 0.030392 -0.195270 -11.417622
LeftLeg 0.786824 -0.000000 -0.000000
LeftFoot -12.615279 10.319727 -5.032876
LeftToeBase 10.292409 -0.000000 -0.000000
Spine -8.541774 -2.431630 -5.119868
RightShoulder -17.748226 -16.505816 -19.735277
RightArm 23.857699 22.280793 54.582545
RightForeArm -4.761789 -0.000000 21.963076
RightHand 10.959183 -0.000000 1.300609
RightHandThumb1 -24.326973 -0.000000 -32.862282
LeftShoulder -22.172449 5.280780 25.295319
LeftArm 6.999751 -42.345085 -50.753196
LeftForeArm 11.306049 -0.000000 65.902890
LeftHand -2.746226 -0.000000 33.479492
LeftHandThumb1 -26.253704 0.000000 33.147579
Head 10.578173 -4.814056 0.539826
